<!DOCTYPE svg PUBLIC "-//W3C//DTD SVG 1.1//EN" "http://www.w3.org/Graphics/SVG/1.1/DTD/svg11.dtd">
<!-- Uploaded to: SVG Repo, www.svgrepo.com, Transformed by: SVG Repo Mixer Tools -->
<svg version="1.1" id="Layer_1" xmlns="http://www.w3.org/2000/svg" xmlns:xlink="http://www.w3.org/1999/xlink" viewBox="-87.04 -87.04 686.08 686.08" xml:space="preserve" width="237px" height="237px" fill="#000000" transform="matrix(-1, 0, 0, 1, 0, 0)">
<g id="SVGRepo_bgCarrier" stroke-width="0">
<rect x="-87.04" y="-87.04" width="686.08" height="686.08" rx="343.04" fill="#7ed0ec" strokewidth="0"/>
</g>
<g id="SVGRepo_tracerCarrier" stroke-linecap="round" stroke-linejoin="round" stroke="#f7fb9d" stroke-width="30.72"> <path style="fill:#464655;" d="M282.483,512h-52.966c-4.875,0-8.828-3.953-8.828-8.828v-18.759h70.621v18.759 C291.31,508.047,287.358,512,282.483,512z"/> <path style="fill:#5B5D6E;" d="M291.31,494.345H220.69c-4.875,0-8.828-3.953-8.828-8.828V344.276h88.276v141.241 C300.138,490.392,296.185,494.345,291.31,494.345z"/> <g> <path style="fill:#464655;" d="M114.759,300.138H97.103c-4.875,0-8.828-3.953-8.828-8.828v-44.138c0-4.875,3.953-8.828,8.828-8.828 h17.655V300.138z"/> <path style="fill:#464655;" d="M414.897,300.138h-17.655v-61.793h17.655c4.875,0,8.828,3.953,8.828,8.828v44.138 C423.724,296.185,419.772,300.138,414.897,300.138z"/> </g> <path style="fill:#5B5D6E;" d="M406.069,317.793H105.931V26.483C105.931,11.857,117.788,0,132.414,0h247.172 c14.626,0,26.483,11.857,26.483,26.483V317.793z"/> <path style="fill:#464655;" d="M379.586,282.483H132.414c-4.875,0-8.828-3.953-8.828-8.828V26.483c0-4.875,3.953-8.828,8.828-8.828 h247.172c4.875,0,8.828,3.953,8.828,8.828v247.172C388.414,278.53,384.461,282.483,379.586,282.483z"/> <path style="fill:#707487;" d="M361.931,247.172c-4.875,0-8.828,3.953-8.828,8.828v26.483H158.897V256 c0-4.875-3.953-8.828-8.828-8.828c-4.875,0-8.828,3.953-8.828,8.828v44.138c0,4.875,3.953,8.828,8.828,8.828 c4.875,0,8.828-3.953,8.828-8.828h194.207c0,4.875,3.953,8.828,8.828,8.828s8.828-3.953,8.828-8.828V256 C370.759,251.125,366.806,247.172,361.931,247.172z"/> <rect x="150.069" y="44.138" style="fill:#464655;" width="211.862" height="211.862"/> <circle style="fill:#5B5D6E;" cx="256" cy="150.069" r="70.621"/> <circle style="fill:#464655;" cx="256" cy="150.069" r="44.138"/> <path style="fill:#D7DEED;" d="M286.897,97.103c-12.171,0-22.069,9.898-22.069,22.069s9.898,22.069,22.069,22.069 c12.171,0,22.069-9.898,22.069-22.069S299.068,97.103,286.897,97.103z"/> <g> <path style="fill:#FFFFFF;" d="M256,136.828c-7.303,0-13.241,5.939-13.241,13.241c0,7.303,5.939,13.241,13.241,13.241 s13.241-5.939,13.241-13.241C269.241,142.766,263.303,136.828,256,136.828z"/> <path style="fill:#FFFFFF;" d="M268.073,107.815c-2.016,3.329-3.245,7.189-3.245,11.358c0,12.171,9.898,22.069,22.069,22.069 c4.169,0,8.029-1.229,11.358-3.245C294.08,123.391,282.678,111.989,268.073,107.815z"/> </g> <path style="fill:#5B5D6E;" d="M361.931,264.828H150.069c-4.875,0-8.828-3.953-8.828-8.828V44.138c0-4.875,3.953-8.828,8.828-8.828 h211.862c4.875,0,8.828,3.953,8.828,8.828V256C370.759,260.875,366.806,264.828,361.931,264.828z M158.897,247.172h194.207V52.966 H158.897V247.172z"/> <rect x="105.931" y="317.793" style="fill:#464655;" width="300.138" height="35.31"/> <g> <path style="fill:#AFB9D2;" d="M158.897,123.586h-8.828c-4.875,0-8.828-3.953-8.828-8.828V97.103c0-4.875,3.953-8.828,8.828-8.828 h8.828V123.586z"/> <path style="fill:#AFB9D2;" d="M353.103,88.276h8.828c4.875,0,8.828,3.953,8.828,8.828v17.655c0,4.875-3.953,8.828-8.828,8.828 h-8.828V88.276z"/> </g> <g> <path style="fill:#5B5D6E;" d="M105.931,353.103H88.276c-4.875,0-8.828-3.953-8.828-8.828v-17.655c0-4.875,3.953-8.828,8.828-8.828 h17.655V353.103z"/> <path style="fill:#5B5D6E;" d="M406.069,317.793h17.655c4.875,0,8.828,3.953,8.828,8.828v17.655c0,4.875-3.953,8.828-8.828,8.828 h-17.655V317.793z"/> </g> <path style="fill:#707487;" d="M344.276,335.448H167.724c-4.875,0-8.828-3.953-8.828-8.828l0,0c0-4.875,3.953-8.828,8.828-8.828 h176.552c4.875,0,8.828,3.953,8.828,8.828l0,0C353.103,331.496,349.151,335.448,344.276,335.448z"/> <rect x="176.552" y="379.586" style="fill:#464655;" width="158.897" height="52.966"/> <g> <path style="fill:#5B5D6E;" d="M335.448,432.552h-8.828v-52.966h8.828c4.875,0,8.828,3.953,8.828,8.828v35.31 C344.276,428.599,340.323,432.552,335.448,432.552z"/> <path style="fill:#5B5D6E;" d="M167.724,441.379L167.724,441.379c-9.751,0-17.655-7.904-17.655-17.655v-35.31 c0-9.751,7.904-17.655,17.655-17.655l0,0c9.751,0,17.655,7.904,17.655,17.655v35.31 C185.379,433.475,177.475,441.379,167.724,441.379z"/> </g> <circle style="fill:#464655;" cx="256" cy="463.448" r="13.241"/> </g>
<g id="SVGRepo_iconCarrier"> <path style="fill:#464655;" d="M282.483,512h-52.966c-4.875,0-8.828-3.953-8.828-8.828v-18.759h70.621v18.759 C291.31,508.047,287.358,512,282.483,512z"/> <path style="fill:#5B5D6E;" d="M291.31,494.345H220.69c-4.875,0-8.828-3.953-8.828-8.828V344.276h88.276v141.241 C300.138,490.392,296.185,494.345,291.31,494.345z"/> <g> <path style="fill:#464655;" d="M114.759,300.138H97.103c-4.875,0-8.828-3.953-8.828-8.828v-44.138c0-4.875,3.953-8.828,8.828-8.828 h17.655V300.138z"/> <path style="fill:#464655;" d="M414.897,300.138h-17.655v-61.793h17.655c4.875,0,8.828,3.953,8.828,8.828v44.138 C423.724,296.185,419.772,300.138,414.897,300.138z"/> </g> <path style="fill:#5B5D6E;" d="M406.069,317.793H105.931V26.483C105.931,11.857,117.788,0,132.414,0h247.172 c14.626,0,26.483,11.857,26.483,26.483V317.793z"/> <path style="fill:#464655;" d="M379.586,282.483H132.414c-4.875,0-8.828-3.953-8.828-8.828V26.483c0-4.875,3.953-8.828,8.828-8.828 h247.172c4.875,0,8.828,3.953,8.828,8.828v247.172C388.414,278.53,384.461,282.483,379.586,282.483z"/> <path style="fill:#707487;" d="M361.931,247.172c-4.875,0-8.828,3.953-8.828,8.828v26.483H158.897V256 c0-4.875-3.953-8.828-8.828-8.828c-4.875,0-8.828,3.953-8.828,8.828v44.138c0,4.875,3.953,8.828,8.828,8.828 c4.875,0,8.828-3.953,8.828-8.828h194.207c0,4.875,3.953,8.828,8.828,8.828s8.828-3.953,8.828-8.828V256 C370.759,251.125,366.806,247.172,361.931,247.172z"/> <rect x="150.069" y="44.138" style="fill:#464655;" width="211.862" height="211.862"/> <circle style="fill:#5B5D6E;" cx="256" cy="150.069" r="70.621"/> <circle style="fill:#464655;" cx="256" cy="150.069" r="44.138"/> <path style="fill:#D7DEED;" d="M286.897,97.103c-12.171,0-22.069,9.898-22.069,22.069s9.898,22.069,22.069,22.069 c12.171,0,22.069-9.898,22.069-22.069S299.068,97.103,286.897,97.103z"/> <g> <path style="fill:#FFFFFF;" d="M256,136.828c-7.303,0-13.241,5.939-13.241,13.241c0,7.303,5.939,13.241,13.241,13.241 s13.241-5.939,13.241-13.241C269.241,142.766,263.303,136.828,256,136.828z"/> <path style="fill:#FFFFFF;" d="M268.073,107.815c-2.016,3.329-3.245,7.189-3.245,11.358c0,12.171,9.898,22.069,22.069,22.069 c4.169,0,8.029-1.229,11.358-3.245C294.08,123.391,282.678,111.989,268.073,107.815z"/> </g> <path style="fill:#5B5D6E;" d="M361.931,264.828H150.069c-4.875,0-8.828-3.953-8.828-8.828V44.138c0-4.875,3.953-8.828,8.828-8.828 h211.862c4.875,0,8.828,3.953,8.828,8.828V256C370.759,260.875,366.806,264.828,361.931,264.828z M158.897,247.172h194.207V52.966 H158.897V247.172z"/> <rect x="105.931" y="317.793" style="fill:#464655;" width="300.138" height="35.31"/> <g> <path style="fill:#AFB9D2;" d="M158.897,123.586h-8.828c-4.875,0-8.828-3.953-8.828-8.828V97.103c0-4.875,3.953-8.828,8.828-8.828 h8.828V123.586z"/> <path style="fill:#AFB9D2;" d="M353.103,88.276h8.828c4.875,0,8.828,3.953,8.828,8.828v17.655c0,4.875-3.953,8.828-8.828,8.828 h-8.828V88.276z"/> </g> <g> <path style="fill:#5B5D6E;" d="M105.931,353.103H88.276c-4.875,0-8.828-3.953-8.828-8.828v-17.655c0-4.875,3.953-8.828,8.828-8.828 h17.655V353.103z"/> <path style="fill:#5B5D6E;" d="M406.069,317.793h17.655c4.875,0,8.828,3.953,8.828,8.828v17.655c0,4.875-3.953,8.828-8.828,8.828 h-17.655V317.793z"/> </g> <path style="fill:#707487;" d="M344.276,335.448H167.724c-4.875,0-8.828-3.953-8.828-8.828l0,0c0-4.875,3.953-8.828,8.828-8.828 h176.552c4.875,0,8.828,3.953,8.828,8.828l0,0C353.103,331.496,349.151,335.448,344.276,335.448z"/> <rect x="176.552" y="379.586" style="fill:#464655;" width="158.897" height="52.966"/> <g> <path style="fill:#5B5D6E;" d="M335.448,432.552h-8.828v-52.966h8.828c4.875,0,8.828,3.953,8.828,8.828v35.31 C344.276,428.599,340.323,432.552,335.448,432.552z"/> <path style="fill:#5B5D6E;" d="M167.724,441.379L167.724,441.379c-9.751,0-17.655-7.904-17.655-17.655v-35.31 c0-9.751,7.904-17.655,17.655-17.655l0,0c9.751,0,17.655,7.904,17.655,17.655v35.31 C185.379,433.475,177.475,441.379,167.724,441.379z"/> </g> <circle style="fill:#464655;" cx="256" cy="463.448" r="13.241"/> </g>
</svg>