<?xml version="1.0" standalone="no"?>
<!DOCTYPE svg PUBLIC "-//W3C//DTD SVG 20010904//EN"
 "http://www.w3.org/TR/2001/REC-SVG-20010904/DTD/svg10.dtd">
<svg version="1.0" xmlns="http://www.w3.org/2000/svg"
 width="512.000000pt" height="512.000000pt" viewBox="0 0 512.000000 512.000000"
 preserveAspectRatio="xMidYMid meet">

<g transform="translate(0.000000,512.000000) scale(0.100000,-0.100000)"
fill="#000000" stroke="none">
<path d="M2505 4785 c-22 -7 -58 -34 -80 -58 -22 -24 -497 -535 -1055 -1136
-558 -601 -1020 -1103 -1027 -1115 -38 -66 4 -178 80 -215 40 -20 60 -21 290
-21 l247 0 2 -908 3 -909 29 -37 c61 -81 25 -77 623 -74 l532 3 46 45 c26 25
49 57 52 71 3 14 6 272 6 573 l2 548 28 24 c28 24 28 24 277 24 260 0 288 -4
309 -44 8 -14 12 -193 14 -577 l2 -556 29 -37 c61 -80 26 -76 619 -76 l528 0
52 49 52 50 3 915 2 916 239 0 c131 0 253 3 271 6 79 16 145 125 122 202 -9
29 -242 284 -1078 1177 -586 627 -1076 1145 -1088 1152 -38 20 -89 23 -131 8z
m106 -428 c15 -12 397 -420 849 -907 l823 -885 -161 -5 c-175 -5 -189 -10
-236 -74 -21 -27 -21 -38 -26 -944 l-5 -917 -327 -3 -327 -2 -3 599 c-3 590
-3 600 -24 628 -11 15 -36 38 -54 51 l-33 22 -516 0 c-569 0 -558 1 -605 -63
-21 -28 -21 -41 -26 -630 l-5 -602 -327 -3 -328 -2 -2 918 -3 919 -28 36 c-44
58 -57 62 -234 67 l-163 5 810 880 c446 484 825 892 842 908 39 33 74 34 109
4z"/>
</g>
</svg>
