<!DOCTYPE svg PUBLIC "-//W3C//DTD SVG 1.1//EN" "http://www.w3.org/Graphics/SVG/1.1/DTD/svg11.dtd">
<!-- Uploaded to: SVG Repo, www.svgrepo.com, Transformed by: SVG Repo Mixer Tools -->
<svg height="237px" width="237px" version="1.1" id="Layer_1" xmlns="http://www.w3.org/2000/svg" xmlns:xlink="http://www.w3.org/1999/xlink" viewBox="-61.44 -61.44 634.88 634.88" xml:space="preserve" fill="#000000">
<g id="SVGRepo_bgCarrier" stroke-width="0">
<rect x="-61.44" y="-61.44" width="634.88" height="634.88" rx="317.44" fill="#7ed0ec" strokewidth="0"/>
</g>
<g id="SVGRepo_tracerCarrier" stroke-linecap="round" stroke-linejoin="round" stroke="#f7fb9d" stroke-width="30.72"> <path style="fill:#8AD5DD;" d="M256,20c130.128,0,236,105.872,236,236S386.128,492,256,492S20,386.128,20,256S125.872,20,256,20 M256,0C114.616,0,0,114.616,0,256s114.616,256,256,256s256-114.616,256-256S397.384,0,256,0L256,0z"/> <path style="fill:#2D2D2D;" d="M378.736,111.352l-179.52,36.28V319.32c-9.632-6.576-22.056-10.536-35.744-10.536 c-30.344,0-54.92,19.536-54.92,43.664s24.576,43.664,54.92,43.664s54.92-19.536,54.92-43.664V219.472l139.456-21.968V298.16 c-9.36-5.856-21.16-9.456-34.032-9.456c-30.344,0-54.92,19.536-54.92,43.664s24.576,43.664,54.92,43.664s54.92-19.536,54.92-43.664 c0-1.624-0.184-3.328-0.36-4.864h0.36L378.736,111.352L378.736,111.352z"/> </g>
<g id="SVGRepo_iconCarrier"> <path style="fill:#8AD5DD;" d="M256,20c130.128,0,236,105.872,236,236S386.128,492,256,492S20,386.128,20,256S125.872,20,256,20 M256,0C114.616,0,0,114.616,0,256s114.616,256,256,256s256-114.616,256-256S397.384,0,256,0L256,0z"/> <path style="fill:#2D2D2D;" d="M378.736,111.352l-179.52,36.28V319.32c-9.632-6.576-22.056-10.536-35.744-10.536 c-30.344,0-54.92,19.536-54.92,43.664s24.576,43.664,54.92,43.664s54.92-19.536,54.92-43.664V219.472l139.456-21.968V298.16 c-9.36-5.856-21.16-9.456-34.032-9.456c-30.344,0-54.92,19.536-54.92,43.664s24.576,43.664,54.92,43.664s54.92-19.536,54.92-43.664 c0-1.624-0.184-3.328-0.36-4.864h0.36L378.736,111.352L378.736,111.352z"/> </g>
</svg>