<!DOCTYPE svg PUBLIC "-//W3C//DTD SVG 1.1//EN" "http://www.w3.org/Graphics/SVG/1.1/DTD/svg11.dtd">
<!-- Uploaded to: SVG Repo, www.svgrepo.com, Transformed by: SVG Repo Mixer Tools -->
<svg version="1.1" id="Capa_1" xmlns="http://www.w3.org/2000/svg" xmlns:xlink="http://www.w3.org/1999/xlink" viewBox="-9.86 -9.86 77.72 77.72" xml:space="preserve" width="237px" height="237px" fill="#000000" transform="matrix(1, 0, 0, 1, 0, 0)">
<g id="SVGRepo_bgCarrier" stroke-width="0">
<rect x="-9.86" y="-9.86" width="77.72" height="77.72" rx="38.86" fill="#7ed0ec" strokewidth="0"/>
</g>
<g id="SVGRepo_tracerCarrier" stroke-linecap="round" stroke-linejoin="round" stroke="#f7fb9d" stroke-width="3.4799999999999995"> <path style="fill:#556080;" d="M45,15.5l-4-10H17l-4,10H3.799C1.701,15.5,0,17.201,0,19.299v29.368C0,50.784,1.716,52.5,3.833,52.5 h50.333c2.117,0,3.833-1.716,3.833-3.833V19.299c0-2.098-1.701-3.799-3.799-3.799H45z"/> <circle style="fill:#424A60;stroke:#2B313D;stroke-width:2;stroke-linecap:round;stroke-miterlimit:10;" cx="29" cy="31.5" r="17"/> <circle style="fill:#7383BF;" cx="29" cy="31.5" r="11"/> <rect x="6" y="10.5" style="fill:#38454F;" width="4" height="5"/> <circle style="fill:#EFCE4A;" cx="51" cy="22.5" r="3"/> <path style="fill:#879AD8;" d="M32,31.5c0,3.595,1.418,6.778,3.6,8.785c2.667-2.007,4.4-5.19,4.4-8.785s-1.733-6.778-4.4-8.785 C33.418,24.722,32,27.905,32,31.5z"/> <path style="fill:#879AD8;" d="M18,31.5c0,3.595,1.733,6.778,4.4,8.785c2.182-2.007,3.6-5.19,3.6-8.785s-1.418-6.778-3.6-8.785 C19.733,24.722,18,27.905,18,31.5z"/> <path style="fill:#556080;" d="M29,43.5c-6.617,0-12-5.383-12-12s5.383-12,12-12s12,5.383,12,12S35.617,43.5,29,43.5z M29,21.5 c-5.514,0-10,4.486-10,10s4.486,10,10,10s10-4.486,10-10S34.514,21.5,29,21.5z"/> <circle style="fill:#4674E8;" cx="30.5" cy="28" r="3.5"/> <circle style="fill:#BF4D90;" cx="28" cy="29.5" r="2"/> <circle style="fill:#BCCEF7;" cx="25" cy="27.5" r="2"/> </g>
<g id="SVGRepo_iconCarrier"> <path style="fill:#556080;" d="M45,15.5l-4-10H17l-4,10H3.799C1.701,15.5,0,17.201,0,19.299v29.368C0,50.784,1.716,52.5,3.833,52.5 h50.333c2.117,0,3.833-1.716,3.833-3.833V19.299c0-2.098-1.701-3.799-3.799-3.799H45z"/> <circle style="fill:#424A60;stroke:#2B313D;stroke-width:2;stroke-linecap:round;stroke-miterlimit:10;" cx="29" cy="31.5" r="17"/> <circle style="fill:#7383BF;" cx="29" cy="31.5" r="11"/> <rect x="6" y="10.5" style="fill:#38454F;" width="4" height="5"/> <circle style="fill:#EFCE4A;" cx="51" cy="22.5" r="3"/> <path style="fill:#879AD8;" d="M32,31.5c0,3.595,1.418,6.778,3.6,8.785c2.667-2.007,4.4-5.19,4.4-8.785s-1.733-6.778-4.4-8.785 C33.418,24.722,32,27.905,32,31.5z"/> <path style="fill:#879AD8;" d="M18,31.5c0,3.595,1.733,6.778,4.4,8.785c2.182-2.007,3.6-5.19,3.6-8.785s-1.418-6.778-3.6-8.785 C19.733,24.722,18,27.905,18,31.5z"/> <path style="fill:#556080;" d="M29,43.5c-6.617,0-12-5.383-12-12s5.383-12,12-12s12,5.383,12,12S35.617,43.5,29,43.5z M29,21.5 c-5.514,0-10,4.486-10,10s4.486,10,10,10s10-4.486,10-10S34.514,21.5,29,21.5z"/> <circle style="fill:#4674E8;" cx="30.5" cy="28" r="3.5"/> <circle style="fill:#BF4D90;" cx="28" cy="29.5" r="2"/> <circle style="fill:#BCCEF7;" cx="25" cy="27.5" r="2"/> </g>
</svg>